{
    "asset" : {
        "generator" : "Khronos glTF Blender I/O v1.6.16",
        "version" : "2.0"
    },
    "extensionsUsed" : [
        "KHR_materials_clearcoat",
        "KHR_materials_transmission",
        "KHR_materials_volume",
        "KHR_materials_ior"
    ],
    "scene" : 0,
    "scenes" : [
        {
            "name" : "Scene",
            "nodes" : [
                0,
                1,
                2,
                3,
                4,
                5,
                6,
                7
            ]
        }
    ],
    "nodes" : [
        {
            "mesh" : 0,
            "name" : "ABBELLITORE_DX"
        },
        {
            "mesh" : 1,
            "name" : "CERNIERA_DX"
        },
        {
            "mesh" : 2,
            "name" : "ASTA_PLASTICA_DX_ANIMA"
        },
        {
            "mesh" : 3,
            "name" : "ASTA_PLASTICA_DX"
        },
        {
            "mesh" : 4,
            "name" : "ASTA_METALLO_DX"
        },
        {
            "mesh" : 5,
            "name" : "ASTA_METALLO_P_DX"
        },
        {
            "mesh" : 6,
            "name" : "P1"
        },
        {
            "mesh" : 7,
            "name" : "ABBELLITORE_DX_1",
            "translation" : [
                0,
                0,
                5.130656063556671e-06
            ]
        }
    ],
    "materials" : [
        {
            "doubleSided" : true,
            "name" : "MAT_METAL_GREY",
            "pbrMetallicRoughness" : {
                "metallicFactor" : 0.8999999761581421,
                "roughnessFactor" : 0.1409090906381607
            }
        },
        {
            "doubleSided" : true,
            "extensions" : {
                "KHR_materials_clearcoat" : {
                    "clearcoatFactor" : 1,
                    "clearcoatRoughnessFactor" : 0.02
                },
                "KHR_materials_transmission" : {
                    "transmissionFactor" : 1,
                    "transmissionTexture" : {
                        "index" : 1
                    }
                },
				"KHR_materials_volume": {
					"thicknessFactor": 4,
					"attenuationDistance": 2,
					"attenuationColor": [ 0.8, 0.8, 0.8 ],
					"thicknessTexture": {
                        "index": 0,
                        "texCoord": 0
                    }
					
				},
				"KHR_materials_ior" : {
					"ior": 1.53
				}
            },
            "name" : "MAT_ACETATE_GLTF",
            "pbrMetallicRoughness" : {
                "baseColorTexture" : {
                    "index" : 2
                },
                "metallicFactor" : 0,
                "roughnessFactor" : 0.12272721529006958
            }
        },
        {
            "doubleSided" : true,
            "name" : "Default_OBJ.001",
            "pbrMetallicRoughness" : {
                "baseColorFactor" : [
                    0.800000011920929,
                    0.800000011920929,
                    0.800000011920929,
                    1
                ],
                "metallicFactor" : 0,
                "roughnessFactor" : 0.5
            }
        }
    ],
    "meshes" : [
        {
            "name" : "ABBELLITORE_DX",
            "primitives" : [
                {
                    "attributes" : {
                        "POSITION" : 0,
                        "NORMAL" : 1,
                        "TEXCOORD_0" : 2,
                        "TEXCOORD_1" : 3
                    },
                    "indices" : 4,
                    "material" : 0
                }
            ]
        },
        {
            "name" : "CERNIERA_DX",
            "primitives" : [
                {
                    "attributes" : {
                        "POSITION" : 5,
                        "NORMAL" : 6,
                        "TEXCOORD_0" : 7
                    },
                    "indices" : 8,
                    "material" : 0
                }
            ]
        },
        {
            "name" : "ASTA_PLASTICA_DX_ANIMA",
            "primitives" : [
                {
                    "attributes" : {
                        "POSITION" : 9,
                        "NORMAL" : 10,
                        "TEXCOORD_0" : 11
                    },
                    "indices" : 12,
                    "material" : 0
                }
            ]
        },
        {
            "name" : "ASTA_PLASTICA_DX",
            "primitives" : [
                {
                    "attributes" : {
                        "POSITION" : 13,
                        "NORMAL" : 14,
                        "TEXCOORD_0" : 15,
                        "TEXCOORD_1" : 16
                    },
                    "indices" : 17,
                    "material" : 1
                }
            ]
        },
        {
            "name" : "ASTA_METALLO_DX",
            "primitives" : [
                {
                    "attributes" : {
                        "POSITION" : 18,
                        "NORMAL" : 19,
                        "TEXCOORD_0" : 20
                    },
                    "indices" : 21,
                    "material" : 0
                }
            ]
        },
        {
            "name" : "ASTA_METALLO_P_DX",
            "primitives" : [
                {
                    "attributes" : {
                        "POSITION" : 22,
                        "NORMAL" : 23,
                        "TEXCOORD_0" : 24,
                        "TEXCOORD_1" : 25
                    },
                    "indices" : 26,
                    "material" : 1
                }
            ]
        },
        {
            "name" : "P1",
            "primitives" : [
                {
                    "attributes" : {
                        "POSITION" : 27,
                        "NORMAL" : 28,
                        "TEXCOORD_0" : 29
                    },
                    "indices" : 30,
                    "material" : 2
                }
            ]
        },
        {
            "name" : "object_1",
            "primitives" : [
                {
                    "attributes" : {
                        "POSITION" : 31,
                        "NORMAL" : 32,
                        "TEXCOORD_0" : 33,
                        "TEXCOORD_1" : 34
                    },
                    "indices" : 35,
                    "material" : 0
                }
            ]
        }
    ],
    "textures" : [
        {
            "sampler" : 0,
            "source" : 0
        },
        {
            "sampler" : 0,
            "source" : 0
        },
        {
            "sampler" : 0,
            "source" : 0
        }
    ],
    "images" : [
        {
            "bufferView" : 18,
            "mimeType" : "image/jpeg",
            "name" : "segnaPosto"
        }
    ],
    "accessors" : [
        {
            "bufferView" : 0,
            "componentType" : 5126,
            "count" : 982,
            "max" : [
                1.5600330829620361,
                1.0441936254501343,
                11.497416496276855
            ],
            "min" : [
                -2.976912260055542,
                -3.237253427505493,
                7.522250175476074
            ],
            "type" : "VEC3"
        },
        {
            "bufferView" : 1,
            "componentType" : 5126,
            "count" : 982,
            "type" : "VEC3"
        },
        {
            "bufferView" : 2,
            "componentType" : 5126,
            "count" : 982,
            "type" : "VEC2"
        },
        {
            "bufferView" : 3,
            "componentType" : 5126,
            "count" : 982,
            "type" : "VEC2"
        },
        {
            "bufferView" : 4,
            "componentType" : 5123,
            "count" : 1086,
            "type" : "SCALAR"
        },
        {
            "bufferView" : 5,
            "componentType" : 5126,
            "count" : 1921,
            "max" : [
                4.280169486999512,
                1.5132129192352295,
                8.658881187438965
            ],
            "min" : [
                -2.4783995151519775,
                -2.300861120223999,
                -1.5791406631469727
            ],
            "type" : "VEC3"
        },
        {
            "bufferView" : 6,
            "componentType" : 5126,
            "count" : 1921,
            "type" : "VEC3"
        },
        {
            "bufferView" : 7,
            "componentType" : 5126,
            "count" : 1921,
            "type" : "VEC2"
        },
        {
            "bufferView" : 8,
            "componentType" : 5123,
            "count" : 2952,
            "type" : "SCALAR"
        },
        {
            "bufferView" : 9,
            "componentType" : 5126,
            "count" : 1726,
            "max" : [
                15.562658309936523,
                1.4970272779464722,
                1.4915187358856201
            ],
            "min" : [
                -2.449361801147461,
                -20.723342895507812,
                -129.69749450683594
            ],
            "type" : "VEC3"
        },
        {
            "bufferView" : 10,
            "componentType" : 5126,
            "count" : 1726,
            "type" : "VEC3"
        },
        {
            "bufferView" : 11,
            "componentType" : 5126,
            "count" : 1726,
            "type" : "VEC2"
        },
        {
            "bufferView" : 12,
            "componentType" : 5123,
            "count" : 4206,
            "type" : "SCALAR"
        },
        {
            "bufferView" : 13,
            "componentType" : 5126,
            "count" : 587,
            "max" : [
                18.48432731628418,
                2.9960038661956787,
                0.921241044998169
            ],
            "min" : [
                -3.248516321182251,
                -24.447864532470703,
                -134.37374877929688
            ],
            "type" : "VEC3"
        },
        {
            "bufferView" : 14,
            "componentType" : 5126,
            "count" : 587,
            "type" : "VEC3"
        },
        {
            "bufferView" : 15,
            "componentType" : 5126,
            "count" : 587,
            "type" : "VEC2"
        },
        {
            "bufferView" : 16,
            "componentType" : 5126,
            "count" : 587,
            "type" : "VEC2"
        },
        {
            "bufferView" : 17,
            "componentType" : 5123,
            "count" : 2412,
            "type" : "SCALAR"
        },
        {
            "bufferView" : 19,
            "componentType" : 5126,
            "count" : 2218,
            "max" : [
                5.5887627601623535,
                1.5000015497207642,
                1.1444040536880493
            ],
            "min" : [
                -3.5206758975982666,
                -18.460744857788086,
                -130.13287353515625
            ],
            "type" : "VEC3"
        },
        {
            "bufferView" : 20,
            "componentType" : 5126,
            "count" : 2218,
            "type" : "VEC3"
        },
        {
            "bufferView" : 21,
            "componentType" : 5126,
            "count" : 2218,
            "type" : "VEC2"
        },
        {
            "bufferView" : 22,
            "componentType" : 5123,
            "count" : 5652,
            "type" : "SCALAR"
        },
        {
            "bufferView" : 23,
            "componentType" : 5126,
            "count" : 233,
            "max" : [
                8.49963092803955,
                1.4707469940185547,
                -75.04183959960938
            ],
            "min" : [
                -3.593273401260376,
                -24.481231689453125,
                -137.48208618164062
            ],
            "type" : "VEC3"
        },
        {
            "bufferView" : 24,
            "componentType" : 5126,
            "count" : 233,
            "type" : "VEC3"
        },
        {
            "bufferView" : 25,
            "componentType" : 5126,
            "count" : 233,
            "type" : "VEC2"
        },
        {
            "bufferView" : 26,
            "componentType" : 5126,
            "count" : 233,
            "type" : "VEC2"
        },
        {
            "bufferView" : 27,
            "componentType" : 5123,
            "count" : 1332,
            "type" : "SCALAR"
        },
        {
            "bufferView" : 28,
            "componentType" : 5126,
            "count" : 36,
            "max" : [
                0.09999991208314896,
                0.09999991953372955,
                0.09999991953372955
            ],
            "min" : [
                -0.09999991208314896,
                -0.09999991953372955,
                -0.09999991953372955
            ],
            "type" : "VEC3"
        },
        {
            "bufferView" : 29,
            "componentType" : 5126,
            "count" : 36,
            "type" : "VEC3"
        },
        {
            "bufferView" : 30,
            "componentType" : 5126,
            "count" : 36,
            "type" : "VEC2"
        },
        {
            "bufferView" : 31,
            "componentType" : 5123,
            "count" : 36,
            "type" : "SCALAR"
        },
        {
            "bufferView" : 32,
            "componentType" : 5126,
            "count" : 974,
            "max" : [
                2.0090365409851074,
                0.2437673807144165,
                11.691560745239258
            ],
            "min" : [
                -3.4443199634552,
                -2.425481081008911,
                7.7906036376953125
            ],
            "type" : "VEC3"
        },
        {
            "bufferView" : 33,
            "componentType" : 5126,
            "count" : 974,
            "type" : "VEC3"
        },
        {
            "bufferView" : 34,
            "componentType" : 5126,
            "count" : 974,
            "type" : "VEC2"
        },
        {
            "bufferView" : 35,
            "componentType" : 5126,
            "count" : 974,
            "type" : "VEC2"
        },
        {
            "bufferView" : 36,
            "componentType" : 5123,
            "count" : 1266,
            "type" : "SCALAR"
        }
    ],
    "bufferViews" : [
        {
            "buffer" : 0,
            "byteLength" : 11784,
            "byteOffset" : 0
        },
        {
            "buffer" : 0,
            "byteLength" : 11784,
            "byteOffset" : 11784
        },
        {
            "buffer" : 0,
            "byteLength" : 7856,
            "byteOffset" : 23568
        },
        {
            "buffer" : 0,
            "byteLength" : 7856,
            "byteOffset" : 31424
        },
        {
            "buffer" : 0,
            "byteLength" : 2172,
            "byteOffset" : 39280
        },
        {
            "buffer" : 0,
            "byteLength" : 23052,
            "byteOffset" : 41452
        },
        {
            "buffer" : 0,
            "byteLength" : 23052,
            "byteOffset" : 64504
        },
        {
            "buffer" : 0,
            "byteLength" : 15368,
            "byteOffset" : 87556
        },
        {
            "buffer" : 0,
            "byteLength" : 5904,
            "byteOffset" : 102924
        },
        {
            "buffer" : 0,
            "byteLength" : 20712,
            "byteOffset" : 108828
        },
        {
            "buffer" : 0,
            "byteLength" : 20712,
            "byteOffset" : 129540
        },
        {
            "buffer" : 0,
            "byteLength" : 13808,
            "byteOffset" : 150252
        },
        {
            "buffer" : 0,
            "byteLength" : 8412,
            "byteOffset" : 164060
        },
        {
            "buffer" : 0,
            "byteLength" : 7044,
            "byteOffset" : 172472
        },
        {
            "buffer" : 0,
            "byteLength" : 7044,
            "byteOffset" : 179516
        },
        {
            "buffer" : 0,
            "byteLength" : 4696,
            "byteOffset" : 186560
        },
        {
            "buffer" : 0,
            "byteLength" : 4696,
            "byteOffset" : 191256
        },
        {
            "buffer" : 0,
            "byteLength" : 4824,
            "byteOffset" : 195952
        },
        {
            "buffer" : 0,
            "byteLength" : 7508,
            "byteOffset" : 200776
        },
        {
            "buffer" : 0,
            "byteLength" : 26616,
            "byteOffset" : 208284
        },
        {
            "buffer" : 0,
            "byteLength" : 26616,
            "byteOffset" : 234900
        },
        {
            "buffer" : 0,
            "byteLength" : 17744,
            "byteOffset" : 261516
        },
        {
            "buffer" : 0,
            "byteLength" : 11304,
            "byteOffset" : 279260
        },
        {
            "buffer" : 0,
            "byteLength" : 2796,
            "byteOffset" : 290564
        },
        {
            "buffer" : 0,
            "byteLength" : 2796,
            "byteOffset" : 293360
        },
        {
            "buffer" : 0,
            "byteLength" : 1864,
            "byteOffset" : 296156
        },
        {
            "buffer" : 0,
            "byteLength" : 1864,
            "byteOffset" : 298020
        },
        {
            "buffer" : 0,
            "byteLength" : 2664,
            "byteOffset" : 299884
        },
        {
            "buffer" : 0,
            "byteLength" : 432,
            "byteOffset" : 302548
        },
        {
            "buffer" : 0,
            "byteLength" : 432,
            "byteOffset" : 302980
        },
        {
            "buffer" : 0,
            "byteLength" : 288,
            "byteOffset" : 303412
        },
        {
            "buffer" : 0,
            "byteLength" : 72,
            "byteOffset" : 303700
        },
        {
            "buffer" : 0,
            "byteLength" : 11688,
            "byteOffset" : 303772
        },
        {
            "buffer" : 0,
            "byteLength" : 11688,
            "byteOffset" : 315460
        },
        {
            "buffer" : 0,
            "byteLength" : 7792,
            "byteOffset" : 327148
        },
        {
            "buffer" : 0,
            "byteLength" : 7792,
            "byteOffset" : 334940
        },
        {
            "buffer" : 0,
            "byteLength" : 2532,
            "byteOffset" : 342732
        }
    ],
    "samplers" : [
        {
            "magFilter" : 9729,
            "minFilter" : 9987
        }
    ],
    "buffers" : [
        {
            "byteLength" : 345264,
            "uri" : "data:application/octet-stream;base64,"
        }
    ]
}
